<svg width="413" height="93" viewBox="0 0 413 93" fill="none" xmlns="http://www.w3.org/2000/svg">
<path d="M36.5867 92.6533C30.5511 92.6533 24.9822 91.2533 19.88 88.4533C14.84 85.5911 10.8267 81.64 7.84 76.6C4.91556 71.4978 3.45333 65.7733 3.45333 59.4267C3.45333 53.08 4.91556 47.3867 7.84 42.3467C10.8267 37.3067 14.84 33.3867 19.88 30.5867C24.9822 27.7244 30.5511 26.2933 36.5867 26.2933C42.6844 26.2933 48.2533 27.7244 53.2933 30.5867C58.3956 33.3867 62.4089 37.3067 65.3333 42.3467C68.2578 47.3867 69.72 53.08 69.72 59.4267C69.72 65.7733 68.2578 71.4978 65.3333 76.6C62.4089 81.64 58.3956 85.5911 53.2933 88.4533C48.2533 91.2533 42.6844 92.6533 36.5867 92.6533ZM36.5867 83.4133C40.88 83.4133 44.7067 82.4489 48.0667 80.52C51.4267 78.5289 54.04 75.7289 55.9067 72.12C57.8356 68.4489 58.8 64.2178 58.8 59.4267C58.8 54.6356 57.8356 50.4356 55.9067 46.8267C54.04 43.2178 51.4267 40.4489 48.0667 38.52C44.7067 36.5911 40.88 35.6267 36.5867 35.6267C32.2933 35.6267 28.4667 36.5911 25.1067 38.52C21.7467 40.4489 19.1022 43.2178 17.1733 46.8267C15.3067 50.4356 14.3733 54.6356 14.3733 59.4267C14.3733 64.2178 15.3067 68.4489 17.1733 72.12C19.1022 75.7289 21.7467 78.5289 25.1067 80.52C28.4667 82.4489 32.2933 83.4133 36.5867 83.4133ZM91.7634 48.04C93.319 45.4267 95.3723 43.4044 97.9234 41.9733C100.537 40.48 103.617 39.7333 107.163 39.7333V50.7467H104.457C100.288 50.7467 97.1146 51.8044 94.9368 53.92C92.8212 56.0356 91.7634 59.7067 91.7634 64.9333V92H81.1234V40.5733H91.7634V48.04ZM128.517 48.2267C130.322 45.7378 132.779 43.7156 135.89 42.16C139.064 40.5422 142.579 39.7333 146.437 39.7333C150.979 39.7333 155.086 40.8222 158.757 43C162.428 45.1778 165.322 48.2889 167.437 52.3333C169.553 56.3156 170.61 60.8889 170.61 66.0533C170.61 71.2178 169.553 75.8533 167.437 79.96C165.322 84.0044 162.397 87.1778 158.664 89.48C154.993 91.72 150.917 92.84 146.437 92.84C142.455 92.84 138.908 92.0622 135.797 90.5067C132.748 88.9511 130.322 86.96 128.517 84.5333V92H117.877V22.9333H128.517V48.2267ZM159.784 66.0533C159.784 62.5067 159.037 59.4578 157.544 56.9067C156.113 54.2933 154.184 52.3333 151.757 51.0267C149.393 49.6578 146.842 48.9733 144.104 48.9733C141.428 48.9733 138.877 49.6578 136.45 51.0267C134.086 52.3956 132.157 54.3867 130.664 57C129.233 59.6133 128.517 62.6933 128.517 66.24C128.517 69.7867 129.233 72.8978 130.664 75.5733C132.157 78.1867 134.086 80.1778 136.45 81.5467C138.877 82.9156 141.428 83.6 144.104 83.6C146.842 83.6 149.393 82.9156 151.757 81.5467C154.184 80.1156 156.113 78.0622 157.544 75.3867C159.037 72.7111 159.784 69.6 159.784 66.0533ZM187.479 33.76C185.55 33.76 183.932 33.1067 182.626 31.8C181.319 30.4933 180.666 28.8756 180.666 26.9467C180.666 25.0178 181.319 23.4 182.626 22.0933C183.932 20.7867 185.55 20.1333 187.479 20.1333C189.346 20.1333 190.932 20.7867 192.239 22.0933C193.546 23.4 194.199 25.0178 194.199 26.9467C194.199 28.8756 193.546 30.4933 192.239 31.8C190.932 33.1067 189.346 33.76 187.479 33.76ZM192.706 40.5733V92H182.066V40.5733H192.706ZM233.555 39.7333C237.599 39.7333 241.208 40.5733 244.382 42.2533C247.617 43.9333 250.137 46.4222 251.942 49.72C253.746 53.0178 254.648 57 254.648 61.6667V92H244.102V63.2533C244.102 58.6489 242.951 55.1333 240.648 52.7067C238.346 50.2178 235.204 48.9733 231.222 48.9733C227.239 48.9733 224.066 50.2178 221.702 52.7067C219.399 55.1333 218.248 58.6489 218.248 63.2533V92H207.608V40.5733H218.248V46.4533C219.991 44.3378 222.199 42.6889 224.875 41.5067C227.613 40.3244 230.506 39.7333 233.555 39.7333Z" fill="#262829"/>
<path d="M321.773 92.6533C315.738 92.6533 310.262 91.2533 305.347 88.4533C300.431 85.5911 296.542 81.64 293.68 76.6C290.88 71.4978 289.48 65.7422 289.48 59.3333C289.48 52.9244 290.88 47.2 293.68 42.16C296.542 37.0578 300.431 33.1067 305.347 30.3067C310.262 27.4444 315.738 26.0133 321.773 26.0133C327.871 26.0133 333.378 27.4444 338.293 30.3067C343.209 33.1067 347.067 37.0578 349.867 42.16C352.667 47.2 354.067 52.9244 354.067 59.3333C354.067 65.7422 352.667 71.4978 349.867 76.6C347.067 81.64 343.209 85.5911 338.293 88.4533C333.378 91.2533 327.871 92.6533 321.773 92.6533ZM321.773 86.96C326.627 86.96 330.982 85.84 334.84 83.6C338.698 81.36 341.747 78.1556 343.987 73.9867C346.227 69.7556 347.347 64.8711 347.347 59.3333C347.347 53.7956 346.227 48.9422 343.987 44.7733C341.747 40.6044 338.698 37.4 334.84 35.16C330.982 32.92 326.627 31.8 321.773 31.8C316.92 31.8 312.564 32.92 308.707 35.16C304.849 37.4 301.8 40.6044 299.56 44.7733C297.32 48.9422 296.2 53.7956 296.2 59.3333C296.2 64.8711 297.32 69.7556 299.56 73.9867C301.8 78.1556 304.849 81.36 308.707 83.6C312.564 85.84 316.92 86.96 321.773 86.96ZM386.741 92.6533C382.448 92.6533 378.652 91.9067 375.355 90.4133C372.119 88.92 369.568 86.8356 367.701 84.16C365.835 81.4844 364.839 78.4978 364.715 75.2H371.621C371.932 78.3733 373.332 81.1733 375.821 83.6C378.31 85.9644 381.95 87.1467 386.741 87.1467C391.159 87.1467 394.644 86.0267 397.195 83.7867C399.808 81.4844 401.115 78.5911 401.115 75.1067C401.115 72.3067 400.399 70.0667 398.968 68.3867C397.537 66.6444 395.764 65.3689 393.648 64.56C391.532 63.6889 388.608 62.7556 384.875 61.76C380.519 60.5778 377.066 59.4267 374.515 58.3067C371.964 57.1867 369.786 55.4444 367.981 53.08C366.177 50.7156 365.275 47.5111 365.275 43.4667C365.275 40.1067 366.146 37.12 367.888 34.5067C369.63 31.8311 372.088 29.7467 375.261 28.2533C378.435 26.76 382.075 26.0133 386.181 26.0133C392.217 26.0133 397.07 27.5067 400.741 30.4933C404.475 33.4178 406.621 37.2133 407.181 41.88H400.088C399.652 39.2044 398.19 36.84 395.701 34.7867C393.212 32.6711 389.852 31.6133 385.621 31.6133C381.701 31.6133 378.435 32.6711 375.821 34.7867C373.208 36.84 371.901 39.6711 371.901 43.28C371.901 46.0178 372.617 48.2267 374.048 49.9067C375.479 51.5867 377.252 52.8622 379.368 53.7333C381.546 54.6044 384.47 55.5378 388.141 56.5333C392.372 57.7156 395.795 58.8978 398.408 60.08C401.021 61.2 403.23 62.9422 405.035 65.3067C406.839 67.6711 407.741 70.8444 407.741 74.8267C407.741 77.8756 406.932 80.7689 405.315 83.5067C403.697 86.2444 401.301 88.4533 398.128 90.1333C394.955 91.8133 391.159 92.6533 386.741 92.6533Z" fill="#262829"/>
</svg>
