<svg width="413" height="93" viewBox="0 0 413 93" fill="none" xmlns="http://www.w3.org/2000/svg">
<path d="M36.5867 92.6533C30.5511 92.6533 24.9822 91.2533 19.88 88.4533C14.84 85.5911 10.8267 81.64 7.84 76.6C4.91556 71.4978 3.45333 65.7733 3.45333 59.4267C3.45333 53.08 4.91556 47.3867 7.84 42.3467C10.8267 37.3067 14.84 33.3867 19.88 30.5867C24.9822 27.7244 30.5511 26.2933 36.5867 26.2933C42.6844 26.2933 48.2533 27.7244 53.2933 30.5867C58.3956 33.3867 62.4089 37.3067 65.3333 42.3467C68.2578 47.3867 69.72 53.08 69.72 59.4267C69.72 65.7733 68.2578 71.4978 65.3333 76.6C62.4089 81.64 58.3956 85.5911 53.2933 88.4533C48.2533 91.2533 42.6844 92.6533 36.5867 92.6533ZM36.5867 83.4133C40.88 83.4133 44.7067 82.4489 48.0667 80.52C51.4267 78.5289 54.04 75.7289 55.9067 72.12C57.8356 68.4489 58.8 64.2178 58.8 59.4267C58.8 54.6356 57.8356 50.4356 55.9067 46.8267C54.04 43.2178 51.4267 40.4489 48.0667 38.52C44.7067 36.5911 40.88 35.6267 36.5867 35.6267C32.2933 35.6267 28.4667 36.5911 25.1067 38.52C21.7467 40.4489 19.1022 43.2178 17.1733 46.8267C15.3067 50.4356 14.3733 54.6356 14.3733 59.4267C14.3733 64.2178 15.3067 68.4489 17.1733 72.12C19.1022 75.7289 21.7467 78.5289 25.1067 80.52C28.4667 82.4489 32.2933 83.4133 36.5867 83.4133ZM91.7634 48.04C93.319 45.4267 95.3723 43.4044 97.9234 41.9733C100.537 40.48 103.617 39.7333 107.163 39.7333V50.7467H104.457C100.288 50.7467 97.1146 51.8044 94.9368 53.92C92.8212 56.0356 91.7634 59.7067 91.7634 64.9333V92H81.1234V40.5733H91.7634V48.04ZM128.517 48.2267C130.322 45.7378 132.779 43.7156 135.89 42.16C139.064 40.5422 142.579 39.7333 146.437 39.7333C150.979 39.7333 155.086 40.8222 158.757 43C162.428 45.1778 165.322 48.2889 167.437 52.3333C169.553 56.3156 170.61 60.8889 170.61 66.0533C170.61 71.2178 169.553 75.8533 167.437 79.96C165.322 84.0044 162.397 87.1778 158.664 89.48C154.993 91.72 150.917 92.84 146.437 92.84C142.455 92.84 138.908 92.0622 135.797 90.5067C132.748 88.9511 130.322 86.96 128.517 84.5333V92H117.877V22.9333H128.517V48.2267ZM159.784 66.0533C159.784 62.5067 159.037 59.4578 157.544 56.9067C156.113 54.2933 154.184 52.3333 151.757 51.0267C149.393 49.6578 146.842 48.9733 144.104 48.9733C141.428 48.9733 138.877 49.6578 136.45 51.0267C134.086 52.3956 132.157 54.3867 130.664 57C129.233 59.6133 128.517 62.6933 128.517 66.24C128.517 69.7867 129.233 72.8978 130.664 75.5733C132.157 78.1867 134.086 80.1778 136.45 81.5467C138.877 82.9156 141.428 83.6 144.104 83.6C146.842 83.6 149.393 82.9156 151.757 81.5467C154.184 80.1156 156.113 78.0622 157.544 75.3867C159.037 72.7111 159.784 69.6 159.784 66.0533ZM187.479 33.76C185.55 33.76 183.932 33.1067 182.626 31.8C181.319 30.4933 180.666 28.8756 180.666 26.9467C180.666 25.0178 181.319 23.4 182.626 22.0933C183.932 20.7867 185.55 20.1333 187.479 20.1333C189.346 20.1333 190.932 20.7867 192.239 22.0933C193.546 23.4 194.199 25.0178 194.199 26.9467C194.199 28.8756 193.546 30.4933 192.239 31.8C190.932 33.1067 189.346 33.76 187.479 33.76ZM192.706 40.5733V92H182.066V40.5733H192.706ZM233.555 39.7333C237.599 39.7333 241.208 40.5733 244.382 42.2533C247.617 43.9333 250.137 46.4222 251.942 49.72C253.746 53.0178 254.648 57 254.648 61.6667V92H244.102V63.2533C244.102 58.6489 242.951 55.1333 240.648 52.7067C238.346 50.2178 235.204 48.9733 231.222 48.9733C227.239 48.9733 224.066 50.2178 221.702 52.7067C219.399 55.1333 218.248 58.6489 218.248 63.2533V92H207.608V40.5733H218.248V46.4533C219.991 44.3378 222.199 42.6889 224.875 41.5067C227.613 40.3244 230.506 39.7333 233.555 39.7333Z" fill="#262829"/>
<path d="M314.773 92.7467C309.982 92.7467 305.658 91.6889 301.8 89.5733C298.004 87.3956 294.987 84.3467 292.747 80.4267C290.569 76.4444 289.48 71.8089 289.48 66.52C289.48 61.2311 290.6 56.6267 292.84 52.7067C295.08 48.7244 298.129 45.6756 301.987 43.56C305.844 41.3822 310.169 40.2933 314.96 40.2933C319.751 40.2933 324.076 41.3822 327.933 43.56C331.853 45.6756 334.902 48.7244 337.08 52.7067C339.32 56.6267 340.44 61.2311 340.44 66.52C340.44 71.7467 339.32 76.3511 337.08 80.3333C334.84 84.3156 331.76 87.3956 327.84 89.5733C323.92 91.6889 319.564 92.7467 314.773 92.7467ZM314.773 87.0533C318.133 87.0533 321.244 86.3067 324.107 84.8133C326.969 83.2578 329.271 80.9556 331.013 77.9067C332.818 74.7956 333.72 71 333.72 66.52C333.72 62.04 332.849 58.2756 331.107 55.2267C329.364 52.1156 327.062 49.8133 324.2 48.32C321.338 46.7644 318.227 45.9867 314.867 45.9867C311.507 45.9867 308.396 46.7644 305.533 48.32C302.671 49.8133 300.369 52.1156 298.627 55.2267C296.947 58.2756 296.107 62.04 296.107 66.52C296.107 71 296.947 74.7956 298.627 77.9067C300.369 80.9556 302.64 83.2578 305.44 84.8133C308.302 86.3067 311.413 87.0533 314.773 87.0533ZM370.829 92.7467C364.981 92.7467 360.189 91.4089 356.456 88.7333C352.785 85.9956 350.732 82.2933 350.296 77.6267H357.016C357.327 80.4889 358.665 82.8222 361.029 84.6267C363.456 86.3689 366.692 87.24 370.736 87.24C374.283 87.24 377.052 86.4 379.043 84.72C381.096 83.04 382.123 80.9556 382.123 78.4667C382.123 76.7244 381.563 75.2933 380.443 74.1733C379.323 73.0533 377.892 72.1822 376.149 71.56C374.469 70.8756 372.167 70.16 369.243 69.4133C365.447 68.4178 362.367 67.4222 360.003 66.4267C357.638 65.4311 355.616 63.9689 353.936 62.04C352.318 60.0489 351.509 57.4044 351.509 54.1067C351.509 51.6178 352.256 49.3156 353.749 47.2C355.243 45.0844 357.358 43.4044 360.096 42.16C362.834 40.9156 365.945 40.2933 369.429 40.2933C374.905 40.2933 379.323 41.6933 382.683 44.4933C386.043 47.2311 387.847 51.0267 388.096 55.88H381.563C381.376 52.8933 380.194 50.4978 378.016 48.6933C375.901 46.8267 372.976 45.8933 369.243 45.8933C365.945 45.8933 363.269 46.6711 361.216 48.2267C359.163 49.7822 358.136 51.7111 358.136 54.0133C358.136 56.0044 358.727 57.6533 359.909 58.96C361.154 60.2044 362.678 61.2 364.483 61.9467C366.287 62.6311 368.714 63.4089 371.763 64.28C375.434 65.2756 378.358 66.24 380.536 67.1733C382.714 68.1067 384.581 69.4756 386.136 71.28C387.692 73.0844 388.501 75.48 388.563 78.4667C388.563 81.2044 387.816 83.6622 386.323 85.84C384.829 87.9556 382.745 89.6356 380.069 90.88C377.394 92.1244 374.314 92.7467 370.829 92.7467Z" fill="#262829"/>
</svg>
